<svg preserveAspectRatio="none" overflow="visible" style="display: block;" width="30.6552" height="30.6552" viewBox="0 0 30.6552 30.6552" fill="none" xmlns="http://www.w3.org/2000/svg">
<g id="Group">
<path id="Vector" d="M15.3276 28.2765C15.9846 28.2765 16.517 28.8089 16.517 29.4659C16.517 30.1228 15.9846 30.6552 15.3276 30.6552C14.6707 30.6552 14.1382 30.1228 14.1382 29.4659C14.1382 28.8089 14.6707 28.2765 15.3276 28.2765Z" fill="white"/>
<path id="Vector_2" d="M15.3276 25.9198C15.9846 25.9198 16.517 26.4523 16.517 27.1092C16.517 27.7662 15.9846 28.2986 15.3276 28.2986C14.6707 28.2986 14.1382 27.7662 14.1382 27.1092C14.1382 26.4523 14.6707 25.9198 15.3276 25.9198Z" fill="white"/>
<path id="Vector_3" d="M15.3276 23.564C15.9846 23.564 16.517 24.0964 16.517 24.7534C16.517 25.4103 15.9846 25.9428 15.3276 25.9428C14.6707 25.9428 14.1382 25.4103 14.1382 24.7534C14.1382 24.0964 14.6707 23.564 15.3276 23.564Z" fill="white"/>
<path id="Vector_4" d="M15.3276 21.2074C15.9846 21.2074 16.517 21.7398 16.517 22.3967C16.517 23.0537 15.9846 23.5861 15.3276 23.5861C14.6707 23.5861 14.1382 23.0537 14.1382 22.3967C14.1382 21.7398 14.6707 21.2074 15.3276 21.2074Z" fill="white"/>
<path id="Vector_5" d="M15.3276 18.8507C15.9846 18.8507 16.517 19.3831 16.517 20.0401C16.517 20.697 15.9846 21.2295 15.3276 21.2295C14.6707 21.2295 14.1382 20.697 14.1382 20.0401C14.1382 19.3831 14.6707 18.8507 15.3276 18.8507Z" fill="white"/>
<path id="Vector_6" d="M12.971 18.8507C13.6279 18.8507 14.1604 19.3831 14.1604 20.0401C14.1604 20.697 13.6279 21.2295 12.971 21.2295C12.314 21.2295 11.7816 20.697 11.7816 20.0401C11.7816 19.3831 12.314 18.8507 12.971 18.8507Z" fill="white"/>
<path id="Vector_7" d="M20.0401 16.4949C20.697 16.4949 21.2295 17.0273 21.2295 17.6843C21.2295 18.3412 20.697 18.8736 20.0401 18.8736C19.3831 18.8736 18.8507 18.3412 18.8507 17.6843C18.8507 17.0273 19.3831 16.4949 20.0401 16.4949Z" fill="white"/>
<path id="Vector_8" d="M17.6843 16.4949C18.3412 16.4949 18.8736 17.0273 18.8736 17.6843C18.8736 18.3412 18.3412 18.8736 17.6843 18.8736C17.0273 18.8736 16.4949 18.3412 16.4949 17.6843C16.4949 17.0273 17.0273 16.4949 17.6843 16.4949Z" fill="white"/>
<path id="Vector_9" d="M15.3276 16.4949C15.9846 16.4949 16.517 17.0273 16.517 17.6843C16.517 18.3412 15.9846 18.8736 15.3276 18.8736C14.6707 18.8736 14.1382 18.3412 14.1382 17.6843C14.1382 17.0273 14.6707 16.4949 15.3276 16.4949Z" fill="white"/>
<path id="Vector_10" d="M12.971 16.4949C13.6279 16.4949 14.1604 17.0273 14.1604 17.6843C14.1604 18.3412 13.6279 18.8736 12.971 18.8736C12.314 18.8736 11.7816 18.3412 11.7816 17.6843C11.7816 17.0273 12.314 16.4949 12.971 16.4949Z" fill="white"/>
<path id="Vector_11" d="M10.6151 16.4949C11.2721 16.4949 11.8045 17.0273 11.8045 17.6843C11.8045 18.3412 11.2721 18.8736 10.6151 18.8736C9.9582 18.8736 9.42576 18.3412 9.42576 17.6843C9.42576 17.0273 9.9582 16.4949 10.6151 16.4949Z" fill="white"/>
<path id="Vector_12" d="M29.4659 14.1382C30.1228 14.1382 30.6552 14.6707 30.6552 15.3276C30.6552 15.9846 30.1228 16.517 29.4659 16.517C28.8089 16.517 28.2765 15.9846 28.2765 15.3276C28.2765 14.6707 28.8089 14.1382 29.4659 14.1382Z" fill="white"/>
<path id="Vector_13" d="M27.1092 14.1382C27.7662 14.1382 28.2986 14.6707 28.2986 15.3276C28.2986 15.9846 27.7662 16.517 27.1092 16.517C26.4523 16.517 25.9198 15.9846 25.9198 15.3276C25.9198 14.6707 26.4523 14.1382 27.1092 14.1382Z" fill="white"/>
<path id="Vector_14" d="M24.7534 14.1382C25.4103 14.1382 25.9428 14.6707 25.9428 15.3276C25.9428 15.9846 25.4103 16.517 24.7534 16.517C24.0964 16.517 23.564 15.9846 23.564 15.3276C23.564 14.6707 24.0964 14.1382 24.7534 14.1382Z" fill="white"/>
<path id="Vector_15" d="M22.3967 14.1382C23.0537 14.1382 23.5861 14.6707 23.5861 15.3276C23.5861 15.9846 23.0537 16.517 22.3967 16.517C21.7398 16.517 21.2074 15.9846 21.2074 15.3276C21.2074 14.6707 21.7398 14.1382 22.3967 14.1382Z" fill="white"/>
<path id="Vector_16" d="M20.0401 14.1382C20.697 14.1382 21.2295 14.6707 21.2295 15.3276C21.2295 15.9846 20.697 16.517 20.0401 16.517C19.3831 16.517 18.8507 15.9846 18.8507 15.3276C18.8507 14.6707 19.3831 14.1382 20.0401 14.1382Z" fill="white"/>
<path id="Vector_17" d="M17.6843 14.1382C18.3412 14.1382 18.8736 14.6707 18.8736 15.3276C18.8736 15.9846 18.3412 16.517 17.6843 16.517C17.0273 16.517 16.4949 15.9846 16.4949 15.3276C16.4949 14.6707 17.0273 14.1382 17.6843 14.1382Z" fill="white"/>
<path id="Vector_18" d="M15.3276 14.1382C15.9846 14.1382 16.517 14.6707 16.517 15.3276C16.517 15.9846 15.9846 16.517 15.3276 16.517C14.6707 16.517 14.1382 15.9846 14.1382 15.3276C14.1382 14.6707 14.6707 14.1382 15.3276 14.1382Z" fill="white"/>
<path id="Vector_19" d="M12.971 14.1382C13.6279 14.1382 14.1604 14.6707 14.1604 15.3276C14.1604 15.9846 13.6279 16.517 12.971 16.517C12.314 16.517 11.7816 15.9846 11.7816 15.3276C11.7816 14.6707 12.314 14.1382 12.971 14.1382Z" fill="white"/>
<path id="Vector_20" d="M10.6151 14.1382C11.2721 14.1382 11.8045 14.6707 11.8045 15.3276C11.8045 15.9846 11.2721 16.517 10.6151 16.517C9.9582 16.517 9.42576 15.9846 9.42576 15.3276C9.42576 14.6707 9.9582 14.1382 10.6151 14.1382Z" fill="white"/>
<path id="Vector_21" d="M8.2585 14.1382C8.91544 14.1382 9.44788 14.6707 9.44788 15.3276C9.44788 15.9846 8.91544 16.517 8.2585 16.517C7.60155 16.517 7.06912 15.9846 7.06912 15.3276C7.06912 14.6707 7.60155 14.1382 8.2585 14.1382Z" fill="white"/>
<path id="Vector_22" d="M5.90185 14.1382C6.5588 14.1382 7.09123 14.6707 7.09123 15.3276C7.09123 15.9846 6.5588 16.517 5.90185 16.517C5.24491 16.517 4.71247 15.9846 4.71247 15.3276C4.71247 14.6707 5.24491 14.1382 5.90185 14.1382Z" fill="white"/>
<path id="Vector_23" d="M3.54603 14.1382C4.20297 14.1382 4.73541 14.6707 4.73541 15.3276C4.73541 15.9846 4.20297 16.517 3.54603 16.517C2.88908 16.517 2.35665 15.9846 2.35665 15.3276C2.35665 14.6707 2.88908 14.1382 3.54603 14.1382Z" fill="white"/>
<path id="Vector_24" d="M1.18938 14.1382C1.84633 14.1382 2.37876 14.6707 2.37876 15.3276C2.37876 15.9846 1.84633 16.517 1.18938 16.517C0.532438 16.517 0 15.9846 0 15.3276C0 14.6707 0.532438 14.1382 1.18938 14.1382Z" fill="white"/>
<path id="Vector_25" d="M17.6843 11.7816C18.3412 11.7816 18.8736 12.314 18.8736 12.971C18.8736 13.6279 18.3412 14.1604 17.6843 14.1604C17.0273 14.1604 16.4949 13.6279 16.4949 12.971C16.4949 12.314 17.0273 11.7816 17.6843 11.7816Z" fill="white"/>
<path id="Vector_26" d="M15.3276 11.7816C15.9846 11.7816 16.517 12.314 16.517 12.971C16.517 13.6279 15.9846 14.1604 15.3276 14.1604C14.6707 14.1604 14.1382 13.6279 14.1382 12.971C14.1382 12.314 14.6707 11.7816 15.3276 11.7816Z" fill="white"/>
<path id="Vector_27" d="M12.971 11.7816C13.6279 11.7816 14.1604 12.314 14.1604 12.971C14.1604 13.6279 13.6279 14.1604 12.971 14.1604C12.314 14.1604 11.7816 13.6279 11.7816 12.971C11.7816 12.314 12.314 11.7816 12.971 11.7816Z" fill="white"/>
<path id="Vector_28" d="M15.3276 9.42576C15.9846 9.42576 16.517 9.9582 16.517 10.6151C16.517 11.2721 15.9846 11.8045 15.3276 11.8045C14.6707 11.8045 14.1382 11.2721 14.1382 10.6151C14.1382 9.9582 14.6707 9.42576 15.3276 9.42576Z" fill="white"/>
<path id="Vector_29" d="M12.971 9.42576C13.6279 9.42576 14.1604 9.9582 14.1604 10.6151C14.1604 11.2721 13.6279 11.8045 12.971 11.8045C12.314 11.8045 11.7816 11.2721 11.7816 10.6151C11.7816 9.9582 12.314 9.42576 12.971 9.42576Z" fill="white"/>
<path id="Vector_30" d="M15.3276 7.06912C15.9846 7.06912 16.517 7.60155 16.517 8.2585C16.517 8.91544 15.9846 9.44788 15.3276 9.44788C14.6707 9.44788 14.1382 8.91544 14.1382 8.2585C14.1382 7.60155 14.6707 7.06912 15.3276 7.06912Z" fill="white"/>
<path id="Vector_31" d="M15.3276 4.71247C15.9846 4.71247 16.517 5.24491 16.517 5.90185C16.517 6.5588 15.9846 7.09123 15.3276 7.09123C14.6707 7.09123 14.1382 6.5588 14.1382 5.90185C14.1382 5.24491 14.6707 4.71247 15.3276 4.71247Z" fill="white"/>
<path id="Vector_32" d="M15.3276 2.35665C15.9846 2.35665 16.517 2.88908 16.517 3.54603C16.517 4.20297 15.9846 4.73541 15.3276 4.73541C14.6707 4.73541 14.1382 4.20297 14.1382 3.54603C14.1382 2.88908 14.6707 2.35665 15.3276 2.35665Z" fill="white"/>
<path id="Vector_33" d="M15.3276 0C15.9846 0 16.517 0.532438 16.517 1.18938C16.517 1.84633 15.9846 2.37876 15.3276 2.37876C14.6707 2.37876 14.1382 1.84633 14.1382 1.18938C14.1382 0.532438 14.6707 0 15.3276 0Z" fill="white"/>
</g>
</svg>
